<svg width="41" height="17" viewBox="0 0 41 17" fill="none" xmlns="http://www.w3.org/2000/svg">
    <path d="M35.5802 0.586404H31.6561V16.9298H35.5802V0.586404Z" fill="white"/>
    <path d="M41 0.586404H37.076V16.9298H41V0.586404Z" fill="white"/>
    <path d="M19.7824 11.792L17.0073 5.7141H14.5358L11.7608 11.6171L9.09418 5.7141H5.36237V2.3934H1.43831V5.7141H0V9.01539H1.43831V16.9298H5.36237V9.01539H6.39316L10.4167 16.9298H13.0833L15.7282 10.7863L18.5032 16.9298H21.1265L25.2265 9.01539H26.2363V16.9298H30.1603V5.7141H22.5791L19.7824 11.792Z" fill="white"/>
    <path d="M28.187 4.46918C29.4083 4.46918 30.3983 3.47077 30.3983 2.23917C30.3983 1.00757 29.4083 0.00915527 28.187 0.00915527C26.9657 0.00915527 25.9757 1.00757 25.9757 2.23917C25.9757 3.47077 26.9657 4.46918 28.187 4.46918Z" fill="white"/>
</svg>
